<svg aria-hidden="true" style="position: absolute; width: 0; height: 0; overflow: hidden;" version="1.1" xmlns="http://www.w3.org/2000/svg" xmlns:xlink="http://www.w3.org/1999/xlink">
<defs>
<symbol id="icon-nav" viewBox="0 0 48 32">
<path fill="none" stroke="#ecd979" style="stroke: var(--color1, #ecd979)" stroke-linejoin="miter" stroke-linecap="round" stroke-miterlimit="4" stroke-width="2.6667" d="M8.638 5.455h38.029"></path>
<path fill="none" stroke="#ecd979" style="stroke: var(--color1, #ecd979)" stroke-linejoin="miter" stroke-linecap="round" stroke-miterlimit="4" stroke-width="2.6667" d="M8.638 24.849h38.029"></path>
<path fill="none" stroke="#ecd979" style="stroke: var(--color1, #ecd979)" stroke-linejoin="miter" stroke-linecap="round" stroke-miterlimit="4" stroke-width="2.6667" d="M20.116 15.151h26.551"></path>
</symbol>
<symbol id="icon-untitled" viewBox="0 0 32 32">
<path d="M26.709 17.757c-0.174-1.303-0.286-2.466-0.337-3.49-0.022-1.040 0.017-1.94 0.119-2.7l-25.293 14.603-1.197-2.073 25.293-14.603c-0.728-0.325-1.537-0.758-2.426-1.297-0.861-0.556-1.803-1.218-2.825-1.988l1.518-0.877c3.209 1.349 6.143 2.024 8.804 2.023l0.513 0.888c-1.35 2.271-2.233 5.149-2.65 8.636l-1.518 0.877z"></path>
</symbol>
<symbol id="icon-facebook" viewBox="0 0 32 32">
<path d="M19.52 4.64c0.24 0 0.48 0 0.96 0v3.6c-0.24 0-0.72 0-1.2 0s-0.96 0-1.2 0.24c-0.24 0.24-0.24 0.48-0.24 1.040 0 0.48 0 0.8 0 1.28h2.64v3.040h-2.64v13.2h-4.080v-13.28h-2.16v-3.040h2.16v-1.040c0-1.76 0.24-3.040 0.72-3.6 0.72-1.040 2.16-1.52 4.32-1.52 0.24 0.080 0.48 0.080 0.72 0.080z"></path>
</symbol>
<symbol id="icon-instagram" viewBox="0 0 32 32">
<path opacity="0.8" d="M28.718 10.756c-0.016-1.074-0.215-2.14-0.596-3.145-0.667-1.716-2.024-3.073-3.743-3.737-0.994-0.373-2.044-0.573-3.108-0.596-1.368-0.061-1.801-0.078-5.273-0.078s-3.916 0-5.274 0.078c-1.062 0.023-2.113 0.223-3.106 0.596-1.719 0.664-3.078 2.021-3.743 3.737-0.374 0.992-0.576 2.041-0.596 3.101-0.061 1.367-0.080 1.8-0.080 5.265s0 3.909 0.080 5.265c0.021 1.062 0.222 2.109 0.596 3.104 0.667 1.714 2.024 3.071 3.744 3.735 0.989 0.386 2.040 0.605 3.106 0.639 1.369 0.061 1.803 0.080 5.274 0.080s3.917 0 5.274-0.080c1.062-0.021 2.112-0.221 3.108-0.595 1.719-0.666 3.076-2.022 3.743-3.737 0.374-0.994 0.574-2.041 0.596-3.104 0.061-1.365 0.080-1.798 0.080-5.265-0.003-3.466-0.003-3.906-0.082-5.264zM15.99 22.531c-3.631 0-6.572-2.936-6.572-6.561s2.941-6.561 6.572-6.561c3.628 0 6.572 2.936 6.572 6.561s-2.944 6.561-6.572 6.561zM22.824 10.696c-0.849 0-1.532-0.684-1.532-1.53s0.684-1.53 1.532-1.53c0.846 0 1.531 0.684 1.531 1.53s-0.685 1.53-1.531 1.53z"></path>
<path opacity="0.8" d="M15.992 19.976c2.211 0 4.004-1.793 4.004-4.004s-1.793-4.004-4.004-4.004c-2.211 0-4.004 1.793-4.004 4.004s1.793 4.004 4.004 4.004z"></path>
</symbol>
<symbol id="icon-logo" viewBox="0 0 32 32">
<path fill="#ecd979" style="fill: var(--color1, #ecd979)" d="M31.957 30.15h-0.998v-1.012h0.998v1.012z"></path>
<path fill="#ecd979" style="fill: var(--color1, #ecd979)" d="M30.959 30.15h-0.998v-1.012h0.998v1.012z"></path>
<path fill="#ecd979" style="fill: var(--color1, #ecd979)" d="M26.967 30.15h-0.998v-1.012h0.998v1.012z"></path>
<path fill="#ecd979" style="fill: var(--color1, #ecd979)" d="M25.969 30.15h-0.998v-1.012h0.998v1.012z"></path>
<path fill="#ecd979" style="fill: var(--color1, #ecd979)" d="M24.971 30.15h-0.998v-1.012h0.998v1.012z"></path>
<path fill="#ecd979" style="fill: var(--color1, #ecd979)" d="M18.982 30.15h-0.998v-1.012h0.998v1.012z"></path>
<path fill="#ecd979" style="fill: var(--color1, #ecd979)" d="M12.994 30.15h-0.998v-1.012h0.998v1.012z"></path>
<path fill="#ecd979" style="fill: var(--color1, #ecd979)" d="M7.006 30.15h-0.998v-1.012h0.998v1.012z"></path>
<path fill="#ecd979" style="fill: var(--color1, #ecd979)" d="M6.008 30.15h-0.998v-1.012h0.998v1.012z"></path>
<path fill="#ecd979" style="fill: var(--color1, #ecd979)" d="M5.010 30.15h-0.998v-1.012h0.998v1.012z"></path>
<path fill="#ecd979" style="fill: var(--color1, #ecd979)" d="M1.018 30.15h-0.998v-1.012h0.998v1.012z"></path>
<path fill="#ecd979" style="fill: var(--color1, #ecd979)" d="M31.957 29.138h-0.998v-1.012h0.998v1.012z"></path>
<path fill="#ecd979" style="fill: var(--color1, #ecd979)" d="M27.965 29.138h-0.998v-1.012h0.998v1.012z"></path>
<path fill="#ecd979" style="fill: var(--color1, #ecd979)" d="M26.967 29.138h-0.998v-1.012h0.998v1.012z"></path>
<path fill="#ecd979" style="fill: var(--color1, #ecd979)" d="M25.969 29.138h-0.998v-1.012h0.998v1.012z"></path>
<path fill="#ecd979" style="fill: var(--color1, #ecd979)" d="M18.982 29.138h-0.998v-1.012h0.998v1.012z"></path>
<path fill="#ecd979" style="fill: var(--color1, #ecd979)" d="M17.984 29.138h-0.998v-1.012h0.998v1.012z"></path>
<path fill="#ecd979" style="fill: var(--color1, #ecd979)" d="M13.992 29.138h-0.998v-1.012h0.998v1.012z"></path>
<path fill="#ecd979" style="fill: var(--color1, #ecd979)" d="M12.994 29.138h-0.998v-1.012h0.998v1.012z"></path>
<path fill="#ecd979" style="fill: var(--color1, #ecd979)" d="M6.008 29.138h-0.998v-1.012h0.998v1.012z"></path>
<path fill="#ecd979" style="fill: var(--color1, #ecd979)" d="M5.010 29.138h-0.998v-1.012h0.998v1.012z"></path>
<path fill="#ecd979" style="fill: var(--color1, #ecd979)" d="M4.012 29.138h-0.998v-1.012h0.998v1.012z"></path>
<path fill="#ecd979" style="fill: var(--color1, #ecd979)" d="M28.963 28.126h-0.998v-1.012h0.998v1.012z"></path>
<path fill="#ecd979" style="fill: var(--color1, #ecd979)" d="M27.965 28.126h-0.998v-1.012h0.998v1.012z"></path>
<path fill="#ecd979" style="fill: var(--color1, #ecd979)" d="M26.967 28.126h-0.998v-1.012h0.998v1.012z"></path>
<path fill="#ecd979" style="fill: var(--color1, #ecd979)" d="M18.982 28.126h-0.998v-1.012h0.998v1.012z"></path>
<path fill="#ecd979" style="fill: var(--color1, #ecd979)" d="M17.984 28.126h-0.998v-1.012h0.998v1.012z"></path>
<path fill="#ecd979" style="fill: var(--color1, #ecd979)" d="M16.986 28.126h-0.998v-1.012h0.998v1.012z"></path>
<path fill="#ecd979" style="fill: var(--color1, #ecd979)" d="M14.99 28.126h-0.998v-1.012h0.998v1.012z"></path>
<path fill="#ecd979" style="fill: var(--color1, #ecd979)" d="M13.992 28.126h-0.998v-1.012h0.998v1.012z"></path>
<path fill="#ecd979" style="fill: var(--color1, #ecd979)" d="M12.994 28.126h-0.998v-1.012h0.998v1.012z"></path>
<path fill="#ecd979" style="fill: var(--color1, #ecd979)" d="M5.010 28.126h-0.998v-1.012h0.998v1.012z"></path>
<path fill="#ecd979" style="fill: var(--color1, #ecd979)" d="M4.012 28.126h-0.998v-1.012h0.998v1.012z"></path>
<path fill="#ecd979" style="fill: var(--color1, #ecd979)" d="M3.014 28.126h-0.998v-1.012h0.998v1.012z"></path>
<path fill="#ecd979" style="fill: var(--color1, #ecd979)" d="M29.961 27.115h-0.998v-1.012h0.998v1.012z"></path>
<path fill="#ecd979" style="fill: var(--color1, #ecd979)" d="M28.963 27.115h-0.998v-1.012h0.998v1.012z"></path>
<path fill="#ecd979" style="fill: var(--color1, #ecd979)" d="M27.965 27.115h-0.998v-1.012h0.998v1.012z"></path>
<path fill="#ecd979" style="fill: var(--color1, #ecd979)" d="M22.975 27.115h-0.998v-1.012h0.998v1.012z"></path>
<path fill="#ecd979" style="fill: var(--color1, #ecd979)" d="M21.977 27.115h-0.998v-1.012h0.998v1.012z"></path>
<path fill="#ecd979" style="fill: var(--color1, #ecd979)" d="M20.979 27.115h-0.998v-1.012h0.998v1.012z"></path>
<path fill="#ecd979" style="fill: var(--color1, #ecd979)" d="M17.984 27.115h-0.998v-1.012h0.998v1.012z"></path>
<path fill="#ecd979" style="fill: var(--color1, #ecd979)" d="M16.986 27.115h-0.998v-1.012h0.998v1.012z"></path>
<path fill="#ecd979" style="fill: var(--color1, #ecd979)" d="M14.99 27.115h-0.998v-1.012h0.998v1.012z"></path>
<path fill="#ecd979" style="fill: var(--color1, #ecd979)" d="M13.992 27.115h-0.998v-1.012h0.998v1.012z"></path>
<path fill="#ecd979" style="fill: var(--color1, #ecd979)" d="M10.998 27.115h-0.998v-1.012h0.998v1.012z"></path>
<path fill="#ecd979" style="fill: var(--color1, #ecd979)" d="M10 27.115h-0.998v-1.012h0.998v1.012z"></path>
<path fill="#ecd979" style="fill: var(--color1, #ecd979)" d="M9.002 27.115h-0.998v-1.012h0.998v1.012z"></path>
<path fill="#ecd979" style="fill: var(--color1, #ecd979)" d="M4.012 27.115h-0.998v-1.012h0.998v1.012z"></path>
<path fill="#ecd979" style="fill: var(--color1, #ecd979)" d="M3.014 27.115h-0.998v-1.012h0.998v1.012z"></path>
<path fill="#ecd979" style="fill: var(--color1, #ecd979)" d="M2.016 27.115h-0.998v-1.012h0.998v1.012z"></path>
<path fill="#ecd979" style="fill: var(--color1, #ecd979)" d="M30.959 26.103h-0.998v-1.012h0.998v1.012z"></path>
<path fill="#ecd979" style="fill: var(--color1, #ecd979)" d="M29.961 26.103h-0.998v-1.012h0.998v1.012z"></path>
<path fill="#ecd979" style="fill: var(--color1, #ecd979)" d="M28.963 26.103h-0.998v-1.012h0.998v1.012z"></path>
<path fill="#ecd979" style="fill: var(--color1, #ecd979)" d="M21.977 26.103h-0.998v-1.012h0.998v1.012z"></path>
<path fill="#ecd979" style="fill: var(--color1, #ecd979)" d="M20.979 26.103h-0.998v-1.012h0.998v1.012z"></path>
<path fill="#ecd979" style="fill: var(--color1, #ecd979)" d="M19.98 26.103h-0.998v-1.012h0.998v1.012z"></path>
<path fill="#ecd979" style="fill: var(--color1, #ecd979)" d="M16.986 26.103h-0.998v-1.012h0.998v1.012z"></path>
<path fill="#ecd979" style="fill: var(--color1, #ecd979)" d="M14.99 26.103h-0.998v-1.012h0.998v1.012z"></path>
<path fill="#ecd979" style="fill: var(--color1, #ecd979)" d="M11.996 26.103h-0.998v-1.012h0.998v1.012z"></path>
<path fill="#ecd979" style="fill: var(--color1, #ecd979)" d="M10.998 26.103h-0.998v-1.012h0.998v1.012z"></path>
<path fill="#ecd979" style="fill: var(--color1, #ecd979)" d="M10 26.103h-0.998v-1.012h0.998v1.012z"></path>
<path fill="#ecd979" style="fill: var(--color1, #ecd979)" d="M3.014 26.103h-0.998v-1.012h0.998v1.012z"></path>
<path fill="#ecd979" style="fill: var(--color1, #ecd979)" d="M2.016 26.103h-0.998v-1.012h0.998v1.012z"></path>
<path fill="#ecd979" style="fill: var(--color1, #ecd979)" d="M1.018 26.103h-0.998v-1.012h0.998v1.012z"></path>
<path fill="#ecd979" style="fill: var(--color1, #ecd979)" d="M30.959 25.091h-0.998v-1.012h0.998v1.012z"></path>
<path fill="#ecd979" style="fill: var(--color1, #ecd979)" d="M29.961 25.091h-0.998v-1.012h0.998v1.012z"></path>
<path fill="#ecd979" style="fill: var(--color1, #ecd979)" d="M20.979 25.091h-0.998v-1.012h0.998v1.012z"></path>
<path fill="#ecd979" style="fill: var(--color1, #ecd979)" d="M19.98 25.091h-0.998v-1.012h0.998v1.012z"></path>
<path fill="#ecd979" style="fill: var(--color1, #ecd979)" d="M18.982 25.091h-0.998v-1.012h0.998v1.012z"></path>
<path fill="#ecd979" style="fill: var(--color1, #ecd979)" d="M12.994 25.091h-0.998v-1.012h0.998v1.012z"></path>
<path fill="#ecd979" style="fill: var(--color1, #ecd979)" d="M11.996 25.091h-0.998v-1.012h0.998v1.012z"></path>
<path fill="#ecd979" style="fill: var(--color1, #ecd979)" d="M10.998 25.091h-0.998v-1.012h0.998v1.012z"></path>
<path fill="#ecd979" style="fill: var(--color1, #ecd979)" d="M2.016 25.091h-0.998v-1.012h0.998v1.012z"></path>
<path fill="#ecd979" style="fill: var(--color1, #ecd979)" d="M1.018 25.091h-0.998v-1.012h0.998v1.012z"></path>
<path fill="#ecd979" style="fill: var(--color1, #ecd979)" d="M30.959 24.079h-0.998v-1.012h0.998v1.012z"></path>
<path fill="#ecd979" style="fill: var(--color1, #ecd979)" d="M25.969 24.079h-0.998v-1.012h0.998v1.012z"></path>
<path fill="#ecd979" style="fill: var(--color1, #ecd979)" d="M16.986 24.079h-0.998v-1.012h0.998v1.012z"></path>
<path fill="#ecd979" style="fill: var(--color1, #ecd979)" d="M14.99 24.079h-0.998v-1.012h0.998v1.012z"></path>
<path fill="#ecd979" style="fill: var(--color1, #ecd979)" d="M6.008 24.079h-0.998v-1.012h0.998v1.012z"></path>
<path fill="#ecd979" style="fill: var(--color1, #ecd979)" d="M1.018 24.079h-0.998v-1.012h0.998v1.012z"></path>
<path fill="#ecd979" style="fill: var(--color1, #ecd979)" d="M25.969 23.067h-0.998v-1.012h0.998v1.012z"></path>
<path fill="#ecd979" style="fill: var(--color1, #ecd979)" d="M24.971 23.067h-0.998v-1.012h0.998v1.012z"></path>
<path fill="#ecd979" style="fill: var(--color1, #ecd979)" d="M17.984 23.067h-0.998v-1.012h0.998v1.012z"></path>
<path fill="#ecd979" style="fill: var(--color1, #ecd979)" d="M16.986 23.067h-0.998v-1.012h0.998v1.012z"></path>
<path fill="#ecd979" style="fill: var(--color1, #ecd979)" d="M14.99 23.067h-0.998v-1.012h0.998v1.012z"></path>
<path fill="#ecd979" style="fill: var(--color1, #ecd979)" d="M13.992 23.067h-0.998v-1.012h0.998v1.012z"></path>
<path fill="#ecd979" style="fill: var(--color1, #ecd979)" d="M7.006 23.067h-0.998v-1.012h0.998v1.012z"></path>
<path fill="#ecd979" style="fill: var(--color1, #ecd979)" d="M6.008 23.067h-0.998v-1.012h0.998v1.012z"></path>
<path fill="#ecd979" style="fill: var(--color1, #ecd979)" d="M25.969 22.055h-0.998v-1.012h0.998v1.012z"></path>
<path fill="#ecd979" style="fill: var(--color1, #ecd979)" d="M24.971 22.055h-0.998v-1.012h0.998v1.012z"></path>
<path fill="#ecd979" style="fill: var(--color1, #ecd979)" d="M23.973 22.055h-0.998v-1.012h0.998v1.012z"></path>
<path fill="#ecd979" style="fill: var(--color1, #ecd979)" d="M18.982 22.055h-0.998v-1.012h0.998v1.012z"></path>
<path fill="#ecd979" style="fill: var(--color1, #ecd979)" d="M17.984 22.055h-0.998v-1.012h0.998v1.012z"></path>
<path fill="#ecd979" style="fill: var(--color1, #ecd979)" d="M13.992 22.055h-0.998v-1.012h0.998v1.012z"></path>
<path fill="#ecd979" style="fill: var(--color1, #ecd979)" d="M12.994 22.055h-0.998v-1.012h0.998v1.012z"></path>
<path fill="#ecd979" style="fill: var(--color1, #ecd979)" d="M8.004 22.055h-0.998v-1.012h0.998v1.012z"></path>
<path fill="#ecd979" style="fill: var(--color1, #ecd979)" d="M7.006 22.055h-0.998v-1.012h0.998v1.012z"></path>
<path fill="#ecd979" style="fill: var(--color1, #ecd979)" d="M6.008 22.055h-0.998v-1.012h0.998v1.012z"></path>
<path fill="#ecd979" style="fill: var(--color1, #ecd979)" d="M24.971 21.044h-0.998v-1.012h0.998v1.012z"></path>
<path fill="#ecd979" style="fill: var(--color1, #ecd979)" d="M23.973 21.044h-0.998v-1.012h0.998v1.012z"></path>
<path fill="#ecd979" style="fill: var(--color1, #ecd979)" d="M19.98 21.044h-0.998v-1.012h0.998v1.012z"></path>
<path fill="#ecd979" style="fill: var(--color1, #ecd979)" d="M18.982 21.044h-0.998v-1.012h0.998v1.012z"></path>
<path fill="#ecd979" style="fill: var(--color1, #ecd979)" d="M12.994 21.044h-0.998v-1.012h0.998v1.012z"></path>
<path fill="#ecd979" style="fill: var(--color1, #ecd979)" d="M11.996 21.044h-0.998v-1.012h0.998v1.012z"></path>
<path fill="#ecd979" style="fill: var(--color1, #ecd979)" d="M8.004 21.044h-0.998v-1.012h0.998v1.012z"></path>
<path fill="#ecd979" style="fill: var(--color1, #ecd979)" d="M7.006 21.044h-0.998v-1.012h0.998v1.012z"></path>
<path fill="#ecd979" style="fill: var(--color1, #ecd979)" d="M28.963 20.032h-0.998v-1.012h0.998v1.012z"></path>
<path fill="#ecd979" style="fill: var(--color1, #ecd979)" d="M27.965 20.032h-0.998v-1.012h0.998v1.012z"></path>
<path fill="#ecd979" style="fill: var(--color1, #ecd979)" d="M26.967 20.032h-0.998v-1.012h0.998v1.012z"></path>
<path fill="#ecd979" style="fill: var(--color1, #ecd979)" d="M23.973 20.032h-0.998v-1.012h0.998v1.012z"></path>
<path fill="#ecd979" style="fill: var(--color1, #ecd979)" d="M20.979 20.032h-0.998v-1.012h0.998v1.012z"></path>
<path fill="#ecd979" style="fill: var(--color1, #ecd979)" d="M19.98 20.032h-0.998v-1.012h0.998v1.012z"></path>
<path fill="#ecd979" style="fill: var(--color1, #ecd979)" d="M11.996 20.032h-0.998v-1.012h0.998v1.012z"></path>
<path fill="#ecd979" style="fill: var(--color1, #ecd979)" d="M10.998 20.032h-0.998v-1.012h0.998v1.012z"></path>
<path fill="#ecd979" style="fill: var(--color1, #ecd979)" d="M8.004 20.032h-0.998v-1.012h0.998v1.012z"></path>
<path fill="#ecd979" style="fill: var(--color1, #ecd979)" d="M5.010 20.032h-0.998v-1.012h0.998v1.012z"></path>
<path fill="#ecd979" style="fill: var(--color1, #ecd979)" d="M4.012 20.032h-0.998v-1.012h0.998v1.012z"></path>
<path fill="#ecd979" style="fill: var(--color1, #ecd979)" d="M3.014 20.032h-0.998v-1.012h0.998v1.012z"></path>
<path fill="#ecd979" style="fill: var(--color1, #ecd979)" d="M31.957 19.020h-0.998v-1.012h0.998v1.012z"></path>
<path fill="#ecd979" style="fill: var(--color1, #ecd979)" d="M27.965 19.020h-0.998v-1.012h0.998v1.012z"></path>
<path fill="#ecd979" style="fill: var(--color1, #ecd979)" d="M26.967 19.020h-0.998v-1.012h0.998v1.012z"></path>
<path fill="#ecd979" style="fill: var(--color1, #ecd979)" d="M25.969 19.020h-0.998v-1.012h0.998v1.012z"></path>
<path fill="#ecd979" style="fill: var(--color1, #ecd979)" d="M21.977 19.020h-0.998v-1.012h0.998v1.012z"></path>
<path fill="#ecd979" style="fill: var(--color1, #ecd979)" d="M20.979 19.020h-0.998v-1.012h0.998v1.012z"></path>
<path fill="#ecd979" style="fill: var(--color1, #ecd979)" d="M10.998 19.020h-0.998v-1.012h0.998v1.012z"></path>
<path fill="#ecd979" style="fill: var(--color1, #ecd979)" d="M10 19.020h-0.998v-1.012h0.998v1.012z"></path>
<path fill="#ecd979" style="fill: var(--color1, #ecd979)" d="M6.008 19.020h-0.998v-1.012h0.998v1.012z"></path>
<path fill="#ecd979" style="fill: var(--color1, #ecd979)" d="M5.010 19.020h-0.998v-1.012h0.998v1.012z"></path>
<path fill="#ecd979" style="fill: var(--color1, #ecd979)" d="M4.012 19.020h-0.998v-1.012h0.998v1.012z"></path>
<path fill="#ecd979" style="fill: var(--color1, #ecd979)" d="M31.957 18.008h-0.998v-1.012h0.998v1.012z"></path>
<path fill="#ecd979" style="fill: var(--color1, #ecd979)" d="M30.959 18.008h-0.998v-1.012h0.998v1.012z"></path>
<path fill="#ecd979" style="fill: var(--color1, #ecd979)" d="M26.967 18.008h-0.998v-1.012h0.998v1.012z"></path>
<path fill="#ecd979" style="fill: var(--color1, #ecd979)" d="M25.969 18.008h-0.998v-1.012h0.998v1.012z"></path>
<path fill="#ecd979" style="fill: var(--color1, #ecd979)" d="M24.971 18.008h-0.998v-1.012h0.998v1.012z"></path>
<path fill="#ecd979" style="fill: var(--color1, #ecd979)" d="M22.975 18.008h-0.998v-1.012h0.998v1.012z"></path>
<path fill="#ecd979" style="fill: var(--color1, #ecd979)" d="M21.977 18.008h-0.998v-1.012h0.998v1.012z"></path>
<path fill="#ecd979" style="fill: var(--color1, #ecd979)" d="M15.988 18.008h-0.998v-1.012h0.998v1.012z"></path>
<path fill="#ecd979" style="fill: var(--color1, #ecd979)" d="M10 18.008h-0.998v-1.012h0.998v1.012z"></path>
<path fill="#ecd979" style="fill: var(--color1, #ecd979)" d="M9.002 18.008h-0.998v-1.012h0.998v1.012z"></path>
<path fill="#ecd979" style="fill: var(--color1, #ecd979)" d="M7.006 18.008h-0.998v-1.012h0.998v1.012z"></path>
<path fill="#ecd979" style="fill: var(--color1, #ecd979)" d="M6.008 18.008h-0.998v-1.012h0.998v1.012z"></path>
<path fill="#ecd979" style="fill: var(--color1, #ecd979)" d="M5.010 18.008h-0.998v-1.012h0.998v1.012z"></path>
<path fill="#ecd979" style="fill: var(--color1, #ecd979)" d="M0.998 16.996h-0.998v-1.012h0.998v1.012z"></path>
<path fill="#ecd979" style="fill: var(--color1, #ecd979)" d="M2.016 16.996h-0.998v-1.012h0.998v1.012z"></path>
<path fill="#ecd979" style="fill: var(--color1, #ecd979)" d="M0.998 18.008h-0.998v-1.012h0.998v1.012z"></path>
<path fill="#ecd979" style="fill: var(--color1, #ecd979)" d="M0.998 15.984h-0.998v-1.012h0.998v1.012z"></path>
<path fill="#ecd979" style="fill: var(--color1, #ecd979)" d="M31.957 16.996h-0.998v-1.012h0.998v1.012z"></path>
<path fill="#ecd979" style="fill: var(--color1, #ecd979)" d="M30.959 16.996h-0.998v-1.012h0.998v1.012z"></path>
<path fill="#ecd979" style="fill: var(--color1, #ecd979)" d="M29.961 16.996h-0.998v-1.012h0.998v1.012z"></path>
<path fill="#ecd979" style="fill: var(--color1, #ecd979)" d="M16.986 16.996h-0.998v-1.012h0.998v1.012z"></path>
<path fill="#ecd979" style="fill: var(--color1, #ecd979)" d="M15.988 16.996h-0.998v-1.012h0.998v1.012z"></path>
<path fill="#ecd979" style="fill: var(--color1, #ecd979)" d="M14.99 16.996h-0.998v-1.012h0.998v1.012z"></path>
<path fill="#ecd979" style="fill: var(--color1, #ecd979)" d="M31.957 15.984h-0.998v-1.012h0.998v1.012z"></path>
<path fill="#ecd979" style="fill: var(--color1, #ecd979)" d="M30.959 15.984h-0.998v-1.012h0.998v1.012z"></path>
<path fill="#ecd979" style="fill: var(--color1, #ecd979)" d="M26.967 15.984h-0.998v-1.012h0.998v1.012z"></path>
<path fill="#ecd979" style="fill: var(--color1, #ecd979)" d="M25.969 15.984h-0.998v-1.012h0.998v1.012z"></path>
<path fill="#ecd979" style="fill: var(--color1, #ecd979)" d="M24.971 15.984h-0.998v-1.012h0.998v1.012z"></path>
<path fill="#ecd979" style="fill: var(--color1, #ecd979)" d="M22.975 15.984h-0.998v-1.012h0.998v1.012z"></path>
<path fill="#ecd979" style="fill: var(--color1, #ecd979)" d="M21.977 15.984h-0.998v-1.012h0.998v1.012z"></path>
<path fill="#ecd979" style="fill: var(--color1, #ecd979)" d="M15.988 15.984h-0.998v-1.012h0.998v1.012z"></path>
<path fill="#ecd979" style="fill: var(--color1, #ecd979)" d="M10 15.984h-0.998v-1.012h0.998v1.012z"></path>
<path fill="#ecd979" style="fill: var(--color1, #ecd979)" d="M9.002 15.984h-0.998v-1.012h0.998v1.012z"></path>
<path fill="#ecd979" style="fill: var(--color1, #ecd979)" d="M7.006 15.984h-0.998v-1.012h0.998v1.012z"></path>
<path fill="#ecd979" style="fill: var(--color1, #ecd979)" d="M6.008 15.984h-0.998v-1.012h0.998v1.012z"></path>
<path fill="#ecd979" style="fill: var(--color1, #ecd979)" d="M5.010 15.984h-0.998v-1.012h0.998v1.012z"></path>
<path fill="#ecd979" style="fill: var(--color1, #ecd979)" d="M31.957 14.972h-0.998v-1.012h0.998v1.012z"></path>
<path fill="#ecd979" style="fill: var(--color1, #ecd979)" d="M27.965 14.972h-0.998v-1.012h0.998v1.012z"></path>
<path fill="#ecd979" style="fill: var(--color1, #ecd979)" d="M26.967 14.972h-0.998v-1.012h0.998v1.012z"></path>
<path fill="#ecd979" style="fill: var(--color1, #ecd979)" d="M25.969 14.972h-0.998v-1.012h0.998v1.012z"></path>
<path fill="#ecd979" style="fill: var(--color1, #ecd979)" d="M21.977 14.972h-0.998v-1.012h0.998v1.012z"></path>
<path fill="#ecd979" style="fill: var(--color1, #ecd979)" d="M20.979 14.972h-0.998v-1.012h0.998v1.012z"></path>
<path fill="#ecd979" style="fill: var(--color1, #ecd979)" d="M10.998 14.972h-0.998v-1.012h0.998v1.012z"></path>
<path fill="#ecd979" style="fill: var(--color1, #ecd979)" d="M10 14.972h-0.998v-1.012h0.998v1.012z"></path>
<path fill="#ecd979" style="fill: var(--color1, #ecd979)" d="M6.008 14.972h-0.998v-1.012h0.998v1.012z"></path>
<path fill="#ecd979" style="fill: var(--color1, #ecd979)" d="M5.010 14.972h-0.998v-1.012h0.998v1.012z"></path>
<path fill="#ecd979" style="fill: var(--color1, #ecd979)" d="M4.012 14.972h-0.998v-1.012h0.998v1.012z"></path>
<path fill="#ecd979" style="fill: var(--color1, #ecd979)" d="M28.963 13.96h-0.998v-1.012h0.998v1.012z"></path>
<path fill="#ecd979" style="fill: var(--color1, #ecd979)" d="M27.965 13.96h-0.998v-1.012h0.998v1.012z"></path>
<path fill="#ecd979" style="fill: var(--color1, #ecd979)" d="M26.967 13.96h-0.998v-1.012h0.998v1.012z"></path>
<path fill="#ecd979" style="fill: var(--color1, #ecd979)" d="M23.973 13.96h-0.998v-1.012h0.998v1.012z"></path>
<path fill="#ecd979" style="fill: var(--color1, #ecd979)" d="M20.979 13.96h-0.998v-1.012h0.998v1.012z"></path>
<path fill="#ecd979" style="fill: var(--color1, #ecd979)" d="M19.98 13.96h-0.998v-1.012h0.998v1.012z"></path>
<path fill="#ecd979" style="fill: var(--color1, #ecd979)" d="M11.996 13.96h-0.998v-1.012h0.998v1.012z"></path>
<path fill="#ecd979" style="fill: var(--color1, #ecd979)" d="M10.998 13.96h-0.998v-1.012h0.998v1.012z"></path>
<path fill="#ecd979" style="fill: var(--color1, #ecd979)" d="M8.004 13.96h-0.998v-1.012h0.998v1.012z"></path>
<path fill="#ecd979" style="fill: var(--color1, #ecd979)" d="M5.010 13.96h-0.998v-1.012h0.998v1.012z"></path>
<path fill="#ecd979" style="fill: var(--color1, #ecd979)" d="M4.012 13.96h-0.998v-1.012h0.998v1.012z"></path>
<path fill="#ecd979" style="fill: var(--color1, #ecd979)" d="M3.014 13.96h-0.998v-1.012h0.998v1.012z"></path>
<path fill="#ecd979" style="fill: var(--color1, #ecd979)" d="M24.971 12.949h-0.998v-1.012h0.998v1.012z"></path>
<path fill="#ecd979" style="fill: var(--color1, #ecd979)" d="M23.973 12.949h-0.998v-1.012h0.998v1.012z"></path>
<path fill="#ecd979" style="fill: var(--color1, #ecd979)" d="M19.98 12.949h-0.998v-1.012h0.998v1.012z"></path>
<path fill="#ecd979" style="fill: var(--color1, #ecd979)" d="M18.982 12.949h-0.998v-1.012h0.998v1.012z"></path>
<path fill="#ecd979" style="fill: var(--color1, #ecd979)" d="M12.994 12.949h-0.998v-1.012h0.998v1.012z"></path>
<path fill="#ecd979" style="fill: var(--color1, #ecd979)" d="M11.996 12.949h-0.998v-1.012h0.998v1.012z"></path>
<path fill="#ecd979" style="fill: var(--color1, #ecd979)" d="M8.004 12.949h-0.998v-1.012h0.998v1.012z"></path>
<path fill="#ecd979" style="fill: var(--color1, #ecd979)" d="M7.006 12.949h-0.998v-1.012h0.998v1.012z"></path>
<path fill="#ecd979" style="fill: var(--color1, #ecd979)" d="M25.969 11.937h-0.998v-1.012h0.998v1.012z"></path>
<path fill="#ecd979" style="fill: var(--color1, #ecd979)" d="M24.971 11.937h-0.998v-1.012h0.998v1.012z"></path>
<path fill="#ecd979" style="fill: var(--color1, #ecd979)" d="M23.973 11.937h-0.998v-1.012h0.998v1.012z"></path>
<path fill="#ecd979" style="fill: var(--color1, #ecd979)" d="M18.982 11.937h-0.998v-1.012h0.998v1.012z"></path>
<path fill="#ecd979" style="fill: var(--color1, #ecd979)" d="M17.984 11.937h-0.998v-1.012h0.998v1.012z"></path>
<path fill="#ecd979" style="fill: var(--color1, #ecd979)" d="M13.992 11.937h-0.998v-1.012h0.998v1.012z"></path>
<path fill="#ecd979" style="fill: var(--color1, #ecd979)" d="M12.994 11.937h-0.998v-1.012h0.998v1.012z"></path>
<path fill="#ecd979" style="fill: var(--color1, #ecd979)" d="M8.004 11.937h-0.998v-1.012h0.998v1.012z"></path>
<path fill="#ecd979" style="fill: var(--color1, #ecd979)" d="M7.006 11.937h-0.998v-1.012h0.998v1.012z"></path>
<path fill="#ecd979" style="fill: var(--color1, #ecd979)" d="M6.008 11.937h-0.998v-1.012h0.998v1.012z"></path>
<path fill="#ecd979" style="fill: var(--color1, #ecd979)" d="M25.969 10.925h-0.998v-1.012h0.998v1.012z"></path>
<path fill="#ecd979" style="fill: var(--color1, #ecd979)" d="M24.971 10.925h-0.998v-1.012h0.998v1.012z"></path>
<path fill="#ecd979" style="fill: var(--color1, #ecd979)" d="M17.984 10.925h-0.998v-1.012h0.998v1.012z"></path>
<path fill="#ecd979" style="fill: var(--color1, #ecd979)" d="M16.986 10.925h-0.998v-1.012h0.998v1.012z"></path>
<path fill="#ecd979" style="fill: var(--color1, #ecd979)" d="M14.99 10.925h-0.998v-1.012h0.998v1.012z"></path>
<path fill="#ecd979" style="fill: var(--color1, #ecd979)" d="M13.992 10.925h-0.998v-1.012h0.998v1.012z"></path>
<path fill="#ecd979" style="fill: var(--color1, #ecd979)" d="M7.006 10.925h-0.998v-1.012h0.998v1.012z"></path>
<path fill="#ecd979" style="fill: var(--color1, #ecd979)" d="M6.008 10.925h-0.998v-1.012h0.998v1.012z"></path>
<path fill="#ecd979" style="fill: var(--color1, #ecd979)" d="M25.969 9.913h-0.998v-1.012h0.998v1.012z"></path>
<path fill="#ecd979" style="fill: var(--color1, #ecd979)" d="M16.986 9.913h-0.998v-1.012h0.998v1.012z"></path>
<path fill="#ecd979" style="fill: var(--color1, #ecd979)" d="M14.99 9.913h-0.998v-1.012h0.998v1.012z"></path>
<path fill="#ecd979" style="fill: var(--color1, #ecd979)" d="M6.008 9.913h-0.998v-1.012h0.998v1.012z"></path>
<path fill="#ecd979" style="fill: var(--color1, #ecd979)" d="M30.959 8.901h-0.998v-1.012h0.998v1.012z"></path>
<path fill="#ecd979" style="fill: var(--color1, #ecd979)" d="M1.018 8.901h-0.998v-1.012h0.998v1.012z"></path>
<path fill="#ecd979" style="fill: var(--color1, #ecd979)" d="M30.959 7.889h-0.998v-1.012h0.998v1.012z"></path>
<path fill="#ecd979" style="fill: var(--color1, #ecd979)" d="M29.961 7.889h-0.998v-1.012h0.998v1.012z"></path>
<path fill="#ecd979" style="fill: var(--color1, #ecd979)" d="M20.979 7.889h-0.998v-1.012h0.998v1.012z"></path>
<path fill="#ecd979" style="fill: var(--color1, #ecd979)" d="M19.98 7.889h-0.998v-1.012h0.998v1.012z"></path>
<path fill="#ecd979" style="fill: var(--color1, #ecd979)" d="M18.982 7.889h-0.998v-1.012h0.998v1.012z"></path>
<path fill="#ecd979" style="fill: var(--color1, #ecd979)" d="M12.994 7.889h-0.998v-1.012h0.998v1.012z"></path>
<path fill="#ecd979" style="fill: var(--color1, #ecd979)" d="M11.996 7.889h-0.998v-1.012h0.998v1.012z"></path>
<path fill="#ecd979" style="fill: var(--color1, #ecd979)" d="M10.998 7.889h-0.998v-1.012h0.998v1.012z"></path>
<path fill="#ecd979" style="fill: var(--color1, #ecd979)" d="M2.016 7.889h-0.998v-1.012h0.998v1.012z"></path>
<path fill="#ecd979" style="fill: var(--color1, #ecd979)" d="M1.018 7.889h-0.998v-1.012h0.998v1.012z"></path>
<path fill="#ecd979" style="fill: var(--color1, #ecd979)" d="M30.959 6.877h-0.998v-1.012h0.998v1.012z"></path>
<path fill="#ecd979" style="fill: var(--color1, #ecd979)" d="M29.961 6.877h-0.998v-1.012h0.998v1.012z"></path>
<path fill="#ecd979" style="fill: var(--color1, #ecd979)" d="M28.963 6.877h-0.998v-1.012h0.998v1.012z"></path>
<path fill="#ecd979" style="fill: var(--color1, #ecd979)" d="M21.977 6.877h-0.998v-1.012h0.998v1.012z"></path>
<path fill="#ecd979" style="fill: var(--color1, #ecd979)" d="M20.979 6.877h-0.998v-1.012h0.998v1.012z"></path>
<path fill="#ecd979" style="fill: var(--color1, #ecd979)" d="M19.98 6.877h-0.998v-1.012h0.998v1.012z"></path>
<path fill="#ecd979" style="fill: var(--color1, #ecd979)" d="M16.986 6.877h-0.998v-1.012h0.998v1.012z"></path>
<path fill="#ecd979" style="fill: var(--color1, #ecd979)" d="M14.99 6.877h-0.998v-1.012h0.998v1.012z"></path>
<path fill="#ecd979" style="fill: var(--color1, #ecd979)" d="M11.996 6.877h-0.998v-1.012h0.998v1.012z"></path>
<path fill="#ecd979" style="fill: var(--color1, #ecd979)" d="M10.998 6.877h-0.998v-1.012h0.998v1.012z"></path>
<path fill="#ecd979" style="fill: var(--color1, #ecd979)" d="M10 6.877h-0.998v-1.012h0.998v1.012z"></path>
<path fill="#ecd979" style="fill: var(--color1, #ecd979)" d="M3.014 6.877h-0.998v-1.012h0.998v1.012z"></path>
<path fill="#ecd979" style="fill: var(--color1, #ecd979)" d="M2.016 6.877h-0.998v-1.012h0.998v1.012z"></path>
<path fill="#ecd979" style="fill: var(--color1, #ecd979)" d="M1.018 6.877h-0.998v-1.012h0.998v1.012z"></path>
<path fill="#ecd979" style="fill: var(--color1, #ecd979)" d="M29.961 5.866h-0.998v-1.012h0.998v1.012z"></path>
<path fill="#ecd979" style="fill: var(--color1, #ecd979)" d="M28.963 5.866h-0.998v-1.012h0.998v1.012z"></path>
<path fill="#ecd979" style="fill: var(--color1, #ecd979)" d="M27.965 5.866h-0.998v-1.012h0.998v1.012z"></path>
<path fill="#ecd979" style="fill: var(--color1, #ecd979)" d="M22.975 5.866h-0.998v-1.012h0.998v1.012z"></path>
<path fill="#ecd979" style="fill: var(--color1, #ecd979)" d="M21.977 5.866h-0.998v-1.012h0.998v1.012z"></path>
<path fill="#ecd979" style="fill: var(--color1, #ecd979)" d="M20.979 5.866h-0.998v-1.012h0.998v1.012z"></path>
<path fill="#ecd979" style="fill: var(--color1, #ecd979)" d="M17.984 5.866h-0.998v-1.012h0.998v1.012z"></path>
<path fill="#ecd979" style="fill: var(--color1, #ecd979)" d="M16.986 5.866h-0.998v-1.012h0.998v1.012z"></path>
<path fill="#ecd979" style="fill: var(--color1, #ecd979)" d="M14.99 5.866h-0.998v-1.012h0.998v1.012z"></path>
<path fill="#ecd979" style="fill: var(--color1, #ecd979)" d="M13.992 5.866h-0.998v-1.012h0.998v1.012z"></path>
<path fill="#ecd979" style="fill: var(--color1, #ecd979)" d="M10.998 5.866h-0.998v-1.012h0.998v1.012z"></path>
<path fill="#ecd979" style="fill: var(--color1, #ecd979)" d="M10 5.866h-0.998v-1.012h0.998v1.012z"></path>
<path fill="#ecd979" style="fill: var(--color1, #ecd979)" d="M9.002 5.866h-0.998v-1.012h0.998v1.012z"></path>
<path fill="#ecd979" style="fill: var(--color1, #ecd979)" d="M4.012 5.866h-0.998v-1.012h0.998v1.012z"></path>
<path fill="#ecd979" style="fill: var(--color1, #ecd979)" d="M3.014 5.866h-0.998v-1.012h0.998v1.012z"></path>
<path fill="#ecd979" style="fill: var(--color1, #ecd979)" d="M2.016 5.866h-0.998v-1.012h0.998v1.012z"></path>
<path fill="#ecd979" style="fill: var(--color1, #ecd979)" d="M28.963 4.854h-0.998v-1.012h0.998v1.012z"></path>
<path fill="#ecd979" style="fill: var(--color1, #ecd979)" d="M27.965 4.854h-0.998v-1.012h0.998v1.012z"></path>
<path fill="#ecd979" style="fill: var(--color1, #ecd979)" d="M26.967 4.854h-0.998v-1.012h0.998v1.012z"></path>
<path fill="#ecd979" style="fill: var(--color1, #ecd979)" d="M18.982 4.854h-0.998v-1.012h0.998v1.012z"></path>
<path fill="#ecd979" style="fill: var(--color1, #ecd979)" d="M17.984 4.854h-0.998v-1.012h0.998v1.012z"></path>
<path fill="#ecd979" style="fill: var(--color1, #ecd979)" d="M16.986 4.854h-0.998v-1.012h0.998v1.012z"></path>
<path fill="#ecd979" style="fill: var(--color1, #ecd979)" d="M14.99 4.854h-0.998v-1.012h0.998v1.012z"></path>
<path fill="#ecd979" style="fill: var(--color1, #ecd979)" d="M13.992 4.854h-0.998v-1.012h0.998v1.012z"></path>
<path fill="#ecd979" style="fill: var(--color1, #ecd979)" d="M12.994 4.854h-0.998v-1.012h0.998v1.012z"></path>
<path fill="#ecd979" style="fill: var(--color1, #ecd979)" d="M5.010 4.854h-0.998v-1.012h0.998v1.012z"></path>
<path fill="#ecd979" style="fill: var(--color1, #ecd979)" d="M4.012 4.854h-0.998v-1.012h0.998v1.012z"></path>
<path fill="#ecd979" style="fill: var(--color1, #ecd979)" d="M3.014 4.854h-0.998v-1.012h0.998v1.012z"></path>
<path fill="#ecd979" style="fill: var(--color1, #ecd979)" d="M31.957 3.842h-0.998v-1.012h0.998v1.012z"></path>
<path fill="#ecd979" style="fill: var(--color1, #ecd979)" d="M27.965 3.842h-0.998v-1.012h0.998v1.012z"></path>
<path fill="#ecd979" style="fill: var(--color1, #ecd979)" d="M26.967 3.842h-0.998v-1.012h0.998v1.012z"></path>
<path fill="#ecd979" style="fill: var(--color1, #ecd979)" d="M25.969 3.842h-0.998v-1.012h0.998v1.012z"></path>
<path fill="#ecd979" style="fill: var(--color1, #ecd979)" d="M18.982 3.842h-0.998v-1.012h0.998v1.012z"></path>
<path fill="#ecd979" style="fill: var(--color1, #ecd979)" d="M17.984 3.842h-0.998v-1.012h0.998v1.012z"></path>
<path fill="#ecd979" style="fill: var(--color1, #ecd979)" d="M13.992 3.842h-0.998v-1.012h0.998v1.012z"></path>
<path fill="#ecd979" style="fill: var(--color1, #ecd979)" d="M12.994 3.842h-0.998v-1.012h0.998v1.012z"></path>
<path fill="#ecd979" style="fill: var(--color1, #ecd979)" d="M6.008 3.842h-0.998v-1.012h0.998v1.012z"></path>
<path fill="#ecd979" style="fill: var(--color1, #ecd979)" d="M5.010 3.842h-0.998v-1.012h0.998v1.012z"></path>
<path fill="#ecd979" style="fill: var(--color1, #ecd979)" d="M4.012 3.842h-0.998v-1.012h0.998v1.012z"></path>
<path fill="#ecd979" style="fill: var(--color1, #ecd979)" d="M31.957 2.83h-0.998v-1.012h0.998v1.012z"></path>
<path fill="#ecd979" style="fill: var(--color1, #ecd979)" d="M30.959 2.83h-0.998v-1.012h0.998v1.012z"></path>
<path fill="#ecd979" style="fill: var(--color1, #ecd979)" d="M26.967 2.83h-0.998v-1.012h0.998v1.012z"></path>
<path fill="#ecd979" style="fill: var(--color1, #ecd979)" d="M25.969 2.83h-0.998v-1.012h0.998v1.012z"></path>
<path fill="#ecd979" style="fill: var(--color1, #ecd979)" d="M24.971 2.83h-0.998v-1.012h0.998v1.012z"></path>
<path fill="#ecd979" style="fill: var(--color1, #ecd979)" d="M18.982 2.83h-0.998v-1.012h0.998v1.012z"></path>
<path fill="#ecd979" style="fill: var(--color1, #ecd979)" d="M12.994 2.83h-0.998v-1.012h0.998v1.012z"></path>
<path fill="#ecd979" style="fill: var(--color1, #ecd979)" d="M7.006 2.83h-0.998v-1.012h0.998v1.012z"></path>
<path fill="#ecd979" style="fill: var(--color1, #ecd979)" d="M6.008 2.83h-0.998v-1.012h0.998v1.012z"></path>
<path fill="#ecd979" style="fill: var(--color1, #ecd979)" d="M5.010 2.83h-0.998v-1.012h0.998v1.012z"></path>
<path fill="#ecd979" style="fill: var(--color1, #ecd979)" d="M1.018 2.83h-0.998v-1.012h0.998v1.012z"></path>
</symbol>
<symbol id="icon-star" viewBox="0 0 32 32">
<path d="M15.623 0.182c0.14-0.243 0.49-0.243 0.63 0l2.206 3.831c0.106 0.183 0.345 0.238 0.52 0.119l3.69-2.517c0.232-0.159 0.549-0.004 0.568 0.277l0.288 4.371c0.014 0.213 0.208 0.369 0.42 0.335l4.43-0.7c0.281-0.044 0.501 0.236 0.393 0.498l-1.673 4.045c-0.083 0.2 0.027 0.428 0.235 0.488l4.284 1.245c0.275 0.080 0.354 0.431 0.14 0.621l-3.299 2.932c-0.163 0.145-0.163 0.399 0 0.544l3.299 2.932c0.214 0.19 0.135 0.541-0.14 0.621l-4.284 1.245c-0.208 0.060-0.317 0.288-0.235 0.488l1.673 4.045c0.109 0.262-0.112 0.543-0.393 0.498l-4.43-0.7c-0.211-0.033-0.406 0.122-0.42 0.335l-0.288 4.371c-0.018 0.281-0.335 0.435-0.568 0.277l-3.69-2.517c-0.175-0.119-0.414-0.065-0.52 0.119l-2.206 3.831c-0.14 0.243-0.49 0.243-0.63 0l-2.206-3.831c-0.106-0.183-0.345-0.238-0.52-0.119l-3.69 2.517c-0.232 0.159-0.549 0.004-0.568-0.277l-0.288-4.371c-0.014-0.213-0.208-0.369-0.42-0.335l-4.43 0.7c-0.281 0.044-0.501-0.236-0.393-0.498l1.673-4.045c0.083-0.2-0.027-0.428-0.235-0.488l-4.284-1.245c-0.275-0.080-0.354-0.431-0.14-0.621l3.299-2.932c0.163-0.145 0.163-0.399 0-0.544l-3.299-2.932c-0.214-0.19-0.135-0.541 0.14-0.621l4.284-1.245c0.208-0.060 0.317-0.288 0.235-0.488l-1.673-4.045c-0.109-0.262 0.112-0.542 0.393-0.498l4.43 0.7c0.211 0.033 0.406-0.122 0.42-0.335l0.288-4.371c0.018-0.281 0.335-0.435 0.568-0.277l3.69 2.517c0.175 0.119 0.414 0.065 0.52-0.119l2.206-3.831z"></path>
</symbol>
<symbol id="icon-youtube" viewBox="0 0 32 32">
<path opacity="0.8" d="M24.24 6c-1.36-0.080-4.16-0.16-8.4-0.16h-0.56c-4.080 0-6.8 0.080-8.16 0.24-1.84 0.16-3.12 0.64-3.84 1.28-0.64 0.56-1.12 1.6-1.28 2.96-0.080 0.88-0.16 2.72-0.16 5.52v0.4c0 2.64 0.080 4.48 0.24 5.36 0.24 1.28 0.64 2.24 1.44 2.8 0.8 0.64 2.16 1.040 4.080 1.2 1.36 0.080 4.16 0.16 8.4 0.16h0.56c4.080 0 6.8-0.080 8.16-0.24 1.84-0.16 3.12-0.64 3.84-1.28 0.64-0.56 1.12-1.6 1.28-2.96 0.080-0.88 0.16-2.72 0.16-5.52v-0.4c0-2.64-0.080-4.48-0.24-5.36-0.24-1.28-0.64-2.24-1.44-2.8-0.8-0.64-2.16-1.040-4.080-1.2zM21.12 15.84l-8.8 5.28v-10.56l8.8 5.28z"></path>
</symbol>
</defs>
</svg>
